<svg xmlns="http://www.w3.org/2000/svg" viewBox="0 0 21 41" fill="#000">
  <defs/>
  <path fill-rule="nonzero" d="M19.15135 1.01616c.26294-.26713.5656-.40094.90748-.40094.34188 0 .64454.13381.90749.40094l-.36098-.36619c.26343.26713.39466.5741.39466.9219 0 .34781-.13123.65478-.39466.92191L3.17437 20.61572l17.43097 18.12243c.26343.26712.39466.57459.39466.92141 0 .3478-.13123.65527-.39466.92239l.36098-.36717c-.26295.26762-.5656.40044-.90749.40044-.34188 0-.64454-.13331-.90748-.40044L.76629 21.53762c-.26295-.26713-.39418-.57459-.39418-.9219 0-.34732.13075-.65478.3937-.9224L19.15134 1.01616z"/>
</svg>
