<svg xmlns="http://www.w3.org/2000/svg" viewBox="0 0 21 41" fill="#000">
  <defs/>
  <path fill-rule="nonzero" d="M1.878 1.01616C1.61088.74903 1.30342.61522.95611.61522s-.65477.13381-.92189.40094L.40093.64997C.13331.9171 0 1.22407 0 1.57187c0 .34781.13331.65478.40093.92191l17.70765 18.12194L.40093 38.73815C.13331 39.00527 0 39.31274 0 39.65956c0 .3478.13331.65527.40093.92239l-.36671-.36717c.26712.26762.57458.40044.92189.40044s.65477-.13331.92189-.40044l18.67688-18.67716c.26712-.26713.40044-.57459.40044-.9219 0-.34732-.13282-.65478-.39995-.9224L1.878 1.01616z"/>
</svg>
