<svg xmlns="http://www.w3.org/2000/svg" viewBox="0 0 28 29" fill="#000">
  <defs/>
  <g fill-rule="nonzero">
    <path d="M26.65571.89588c.19121-.18699.4113-.28066.6599-.28066.2486 0 .46869.09367.6599.28066L27.713.63955c.19156.18698.28699.40187.28699.64533 0 .24346-.09543.45834-.28699.64533L15.03772 14.61557l12.6753 12.6857c.19155.18699.28698.40221.28698.64499 0 .24346-.09543.45869-.28699.64568l.2625-.25703c-.19121.18734-.4113.28031-.6599.28031-.2486 0-.46869-.09332-.6599-.2803L13.28664 15.2609C13.09543 15.07391 13 14.8587 13 14.61557c0-.24312.09508-.45835.28628-.64568L26.65571.89588z"/>
    <path d="M1.34429.89588C1.15308.70889.93299.61522.68439.61522.4358.61522.2157.7089.0245.89588L.287.63955C.09543.82653 0 1.04142 0 1.28488c0 .24346.09543.45834.28699.64533l12.67529 12.68536-12.6753 12.6857C.09544 27.48826 0 27.70348 0 27.94626c0 .24346.09543.45869.28699.64568l-.2625-.25703c.19121.18734.4113.28031.6599.28031.2486 0 .46869-.09332.6599-.2803L14.71336 15.2609c.19121-.18699.28664-.40221.28664-.64533 0-.24312-.09508-.45835-.28628-.64568L1.34429.89588z"/>
  </g>
</svg>
