<?xml version="1.0" encoding="utf-8"?>
<!-- Generator: Adobe Illustrator 24.2.1, SVG Export Plug-In . SVG Version: 6.00 Build 0)  -->
<svg version="1.1" id="Layer_1" xmlns="http://www.w3.org/2000/svg" xmlns:xlink="http://www.w3.org/1999/xlink" x="0px" y="0px"
	 viewBox="0 0 21.8 22.3" style="enable-background:new 0 0 21.8 22.3;" xml:space="preserve">
<style type="text/css">
	.st0{fill:#355D96;}
</style>
<g>
	<path class="st0" d="M21.8,21.2l-5.8-5.8c1.5-1.6,2.4-3.8,2.4-6.2c0-5.1-4.1-9.2-9.2-9.2S0,4.1,0,9.2s4.1,9.2,9.2,9.2
		c2.2,0,4.1-0.7,5.7-2l5.8,5.8L21.8,21.2z M1.5,9.2C1.5,5,5,1.5,9.2,1.5S17,5,17,9.2S13.5,17,9.2,17S1.5,13.5,1.5,9.2z"/>
	<circle class="st0" cx="9.2" cy="5.2" r="1"/>
	<rect x="8.5" y="8" class="st0" width="1.5" height="6.3"/>
</g>
</svg>
