<?xml version="1.0" encoding="utf-8"?>
<!-- Generator: Adobe Illustrator 24.2.1, SVG Export Plug-In . SVG Version: 6.00 Build 0)  -->
<svg version="1.1" id="Layer_1" xmlns="http://www.w3.org/2000/svg" xmlns:xlink="http://www.w3.org/1999/xlink" x="0px" y="0px"
	 viewBox="0 0 23.3 23.3" style="enable-background:new 0 0 23.3 23.3;" xml:space="preserve">
<g>
	<polygon points="0,7.7 2,7.7 2,3.4 5.5,6.7 6.9,5.3 3.5,2 7.7,2 7.7,0 0,0 	"/>
	<polygon points="6.9,18 5.5,16.6 2,19.9 2,15.6 0,15.6 0,23.3 7.7,23.3 7.7,21.3 3.5,21.3 	"/>
	<polygon points="15.6,0 15.6,2 19.8,2 16.4,5.3 17.8,6.7 21.3,3.4 21.3,7.7 23.3,7.7 23.3,0 	"/>
	<polygon points="21.3,19.9 17.8,16.6 16.4,18 19.8,21.3 15.6,21.3 15.6,23.3 23.3,23.3 23.3,15.6 21.3,15.6 	"/>
	<path d="M8.1,15.1h7v-7h-7V15.1z M10.1,10.1h3v3h-3V10.1z"/>
</g>
</svg>
