<?xml version="1.0" encoding="utf-8"?>
<!-- Generator: Adobe Illustrator 24.2.1, SVG Export Plug-In . SVG Version: 6.00 Build 0)  -->
<svg version="1.1" id="Layer_1" xmlns="http://www.w3.org/2000/svg" xmlns:xlink="http://www.w3.org/1999/xlink" x="0px" y="0px"
	 viewBox="0 0 20 24" style="enable-background:new 0 0 20 24;" xml:space="preserve">
<path d="M16,16c-1,0-1.9,0.4-2.7,1l-5.6-3.7C7.9,12.9,8,12.5,8,12s-0.1-0.9-0.2-1.3L13.3,7C14.1,7.6,15,8,16,8c2.2,0,4-1.8,4-4
	s-1.8-4-4-4s-4,1.8-4,4c0,0.5,0.1,0.9,0.2,1.3L6.7,9C5.9,8.4,5,8,4,8c-2.2,0-4,1.8-4,4s1.8,4,4,4c1,0,1.9-0.4,2.7-1l5.6,3.7
	C12.1,19.1,12,19.5,12,20c0,2.2,1.8,4,4,4s4-1.8,4-4S18.2,16,16,16z M16,2c1.1,0,2,0.9,2,2s-0.9,2-2,2s-2-0.9-2-2S14.9,2,16,2z
	 M4,14c-1.1,0-2-0.9-2-2s0.9-2,2-2s2,0.9,2,2S5.1,14,4,14z M16,22c-1.1,0-2-0.9-2-2s0.9-2,2-2s2,0.9,2,2S17.1,22,16,22z"/>
</svg>
