<?xml version="1.0" encoding="utf-8"?>
<!-- Generator: Adobe Illustrator 24.2.1, SVG Export Plug-In . SVG Version: 6.00 Build 0)  -->
<svg version="1.1" id="Layer_1" xmlns="http://www.w3.org/2000/svg" xmlns:xlink="http://www.w3.org/1999/xlink" x="0px" y="0px"
	 viewBox="0 0 23.4 23.4" style="enable-background:new 0 0 23.4 23.4;" xml:space="preserve">
<g>
	<path d="M23.4,22l-5.7-5.7c1.4-1.7,2.3-3.9,2.3-6.3c0-5.5-4.5-10-10-10S0,4.5,0,10s4.5,10,10,10c2.4,0,4.6-0.8,6.3-2.3l5.7,5.7
		L23.4,22z M2,10c0-4.4,3.6-8,8-8s8,3.6,8,8s-3.6,8-8,8S2,14.4,2,10z"/>
	<rect x="6" y="9" width="8" height="2"/>
</g>
</svg>
