<svg xmlns="http://www.w3.org/2000/svg" viewBox="0 0 81 81">
  <defs/>
  <path d="M40.5 0C18.2 0 0 18.2 0 40.5S18.2 81 40.5 81 81 62.8 81 40.5 62.8 0 40.5 0zm0 80C18.7 80 1 62.3 1 40.5S18.7 1 40.5 1 80 18.7 80 40.5 62.3 80 40.5 80z"/>
  <path d="M40.5 4C20.4 4 4 20.4 4 40.5S20.4 77 40.5 77 77 60.6 77 40.5 60.6 4 40.5 4zm0 72C20.9 76 5 60.1 5 40.5S20.9 5 40.5 5 76 20.9 76 40.5 60.1 76 40.5 76z"/>
  <path d="M35 21.7h11c.2 0 .3-.1.4-.2.1-.1.1-.3 0-.5l-5.5-9.5c-.1-.2-.3-.2-.4-.2-.1 0-.3.1-.4.2L34.6 21c-.1.2-.1.3 0 .5.1.1.3.2.4.2zm5.5-9l4.6 8h-9.2l4.6-8z"/>
  <path d="M23.1 31.4c.2 0 .3 0 .5-.1l7.7-7.7c.1-.1.2-.3.1-.5 0-.2-.2-.3-.3-.3L20.6 20h-.1c-.1 0-.3 0-.3.1-.1.1-.2.3-.1.5l2.8 10.5c-.1.1 0 .3.2.3zm6.9-7.9L23.5 30l-2.4-8.9 8.9 2.4z"/>
  <path d="M21.5 46.4c.1-.1.2-.2.2-.4V35c0-.2-.1-.3-.2-.4-.1 0-.2-.1-.2-.1-.1 0-.2 0-.2.1l-9.5 5.5c-.2.1-.2.2-.2.4s.1.3.2.4l9.5 5.5c0 .1.2.1.4 0zm-.8-1.3l-8-4.6 8-4.6v9.2z"/>
  <path d="M23.6 49.7c-.1-.1-.2-.1-.3-.1h-.1c-.2 0-.3.2-.3.3l-2.8 10.5c0 .2 0 .3.1.5.1.1.3.2.5.1l10.5-2.8c.2 0 .3-.2.3-.3 0-.2 0-.3-.1-.5l-7.8-7.7zm-2.5 10.2l2.4-8.9 6.5 6.5-8.9 2.4z"/>
  <path d="M46 59.3H35c-.2 0-.3.1-.4.2-.1.2-.1.3 0 .5l5.5 9.5c.2.3.7.3.8 0l5.5-9.5c.1-.2.1-.3 0-.5s-.3-.2-.4-.2zm-5.5 8.9l-4.6-8h9.2l-4.6 8z"/>
  <path d="M58.2 49.9c0-.2-.2-.3-.3-.3h-.1c-.1 0-.3.1-.3.1l-7.7 7.7c-.1.1-.2.3-.1.5 0 .2.2.3.3.3L60.5 61c.2 0 .3 0 .5-.1.1-.1.2-.3.1-.5l-2.9-10.5zM51 57.5l6.5-6.5 2.4 8.9-8.9-2.4z"/>
  <path d="M69.5 40.1L60 34.6c-.1 0-.2-.1-.2-.1s-.2 0-.2.1c-.2.1-.2.2-.2.4v11c0 .2.1.3.2.4.1.1.3.1.5 0l9.5-5.5c.1-.1.2-.2.2-.4-.1-.2-.2-.3-.3-.4zm-9.2 5v-9.2l8 4.6-8 4.6z"/>
  <path d="M57.4 31.3c.1.1.3.2.5.1.2 0 .3-.2.3-.3L61 20.6c0-.2 0-.3-.1-.5-.1-.1-.2-.1-.3-.1h-.1L50 22.8c-.2 0-.3.2-.3.3 0 .2 0 .3.1.5l7.6 7.7zm2.5-10.2L57.5 30 51 23.5l8.9-2.4z"/>
  <path d="M40.5 28.8c-6.4 0-11.7 5.2-11.7 11.7S34 52.2 40.5 52.2 52.2 47 52.2 40.5s-5.3-11.7-11.7-11.7zm0 22.4c-5.9 0-10.7-4.8-10.7-10.7s4.8-10.7 10.7-10.7 10.7 4.8 10.7 10.7-4.8 10.7-10.7 10.7z"/>
</svg>
