<svg xmlns="http://www.w3.org/2000/svg" viewBox="0 0 79 79">
  <defs/>
  <path d="M78.4 51.5c-9.3 1.3-23.6 4.3-38.7 11.3l-.7.3v-3.6h.5c.5 0 1 .1 1.4.1 2.1 0 5-.4 6.9-2.3 1.9-1.9 2.3-4.7 2.3-6.8v-.4l.4-.1c15.9-4.8 27.9-5.3 28-5.3.1 0 .3-.1.3-.2.1-.1.1-.2.1-.4 0-.1-.1-.3-.2-.4-.1-.1-.2-.1-.4-.1-.5 0-5.2.3-12.4 1.6l-.6.1v-3h1.6c1.8 0 4.4-.3 6-2 2.7-2.7 1.9-7.9 1.9-7.9 0-.2-.2-.4-.4-.4-.1 0-5.2-.9-7.9 1.9-.1.1-.1.2-.2.2l-1 1.1v-7l.5.1c.4 0 .9.1 1.3.1 1.8 0 4.4-.3 6-2 2.7-2.7 1.9-7.9 1.9-7.9 0-.2-.2-.4-.4-.4-.1 0-5.2-.8-7.9 1.9l-.5.5-.9 1.2v-7.9l.2-.1c1.2-1 3.9-3.5 3.9-6.6 0-3.8-4.3-6.9-4.3-6.9-.2-.1-.4-.1-.6 0 0 0-4.3 3.1-4.3 6.9 0 3.1 2.7 5.7 3.9 6.6l.2.1v2.8l-.9-1c-2.8-2.8-7.9-1.9-8-1.9-.2 0-.4.2-.4.4s-.8 5.2 1.9 7.9c1.7 1.7 4.2 2 6 2h1.4v7l-.9-1.1c-.1-.2-.2-.3-.3-.4-2.6-2.6-7.4-1.9-7.9-1.9-.2 0-.4.2-.4.4s-.8 5.2 1.9 7.9c1.7 1.7 4.2 2 6 2h1.6v7.6l-.4.1c-4.5.9-9 2-13.4 3.3l-.6.2.1-.5v-.3c0-.2-.2-.4-.4-.4s-2.1-.3-4.2 0h-.2l-.2-.2c-1.7-.7-3.6-1.5-5.6-2.3l-.4-.2v-1.9l.6.1c.4 0 .9.1 1.6.1 2.1 0 5-.4 6.9-2.3 3.1-3.1 2.1-9 2.1-9.1 0-.2-.2-.4-.4-.4s-6-1-9.1 2.1c-.3.3-.5.6-.8 1l-.9 1.4v-9.6l.2-.1c1.1-.9 4.5-3.9 4.5-7.6 0-4.3-4.7-7.8-4.9-7.9-.2-.1-.4-.1-.6 0-.2.1-4.9 3.5-4.9 7.9 0 3.7 3.5 6.8 4.5 7.6l.2.2v3.6l-.9-1.1c-.1-.1-.2-.3-.4-.4-3.1-3.1-8.8-2.2-9.1-2.1-.2 0-.4.2-.4.4s-1 6 2.1 9.1c1.9 1.9 4.8 2.3 6.9 2.3h1.7v6.6l-1.5-.6c-.5-.2-.9-.3-1.3-.5h-.2c-.8-.4-1.7-.7-2.6-.9-6.2-2-12.5-3.7-18.8-4.8l-.4-.1v-2.6h.5c1.2.1 4.1.1 5.8-1.7 2.3-2.3 1.6-6.5 1.6-6.7 0-.2-.2-.4-.4-.4s-4.4-.7-6.6 1.5l-.8.7v-5.4h.5c1.2.1 4.2.1 6-1.6 2.3-2.3 1.6-6.5 1.6-6.7 0-.2-.2-.4-.4-.4 0 0-4.4-.7-6.7 1.6l-1 1.1v-6.1l.2-.2c1-.8 3.2-2.9 3.2-5.5C16.6 2.6 13.2.1 13 0c-.2-.1-.4-.1-.6 0-.1.1-3.6 2.6-3.6 5.8 0 2.6 2.2 4.7 3.2 5.5l.2.1v1.9l-.8-.8c-2.3-2.1-6.3-1.5-6.5-1.4-.2 0-.4.2-.4.4s-.7 4.4 1.6 6.7c1.6 1.6 4.2 1.7 5.7 1.7h.5v5.3l-.9-.8c-2.2-2.2-6.5-1.6-6.6-1.6-.2 0-.4.2-.4.4s-.7 4.4 1.6 6.7c1.7 1.7 4.6 1.7 5.8 1.7h.5v6.1l-.6-.1C5 36.5.7 36.3.5 36.3c-.1 0-.2 0-.3.1-.1.1-.2.2-.2.4 0 .1 0 .3.1.4.1.1.2.2.3.2.1 0 11.3.5 26.4 4.9l.7.2-.4.6c0-.1-.1 0-.1 0s-.6 3.6.6 6.7l.4 1-1-.4C16.2 46.7 6.6 44.9.6 44c-.3 0-.6.2-.6.5s.2.5.4.6c6.7.9 17.1 2.9 28.8 7.2l.1.1c1.1 1 2.5 1.6 4.3 1.9l1.6.3-1.5.7c-2.9 1.3-5.7 2.7-8.3 4.1l-.2.1-.2-.1C17.2 56.3 9 53.9.6 52.3c-.3-.1-.5.1-.6.4 0 .1 0 .3.1.4.1.1.2.2.3.2 7.7 1.5 15.4 3.7 22.7 6.4l1 .4-.9.5c-2.6 1.5-5.1 3.1-7.6 4.7l-.2.1-.2-.1c-4.7-1.7-9.6-3.2-14.6-4.4-.1 0-.3 0-.4.1-.1 0-.2.2-.2.3 0 .1 0 .3.1.4.1.1.2.2.3.2 4.4 1.1 8.8 2.4 13.1 3.9l.9.3-.8.6C8.7 70.2 4.2 74 .1 78.1c-.2.2-.2.5 0 .7.1.1.2.1.3.1.1 0 .3-.1.4-.1 10-10 22.2-18 36.5-24l.7-.3v9.1l-.3.1c-8.3 4-15.9 8.8-22.7 14.3-.2.2-.2.5-.1.7.2.2.5.2.7.1 22.7-18.5 49.1-24.4 62.9-26.3.1 0 .2-.1.3-.2.1-.1.1-.2.1-.4.1-.2-.2-.4-.5-.4zm-11-16.8c1.7-1.7 4.7-1.8 6.3-1.7h.4v.4c.1 1 .2 4.4-1.7 6.3-1.4 1.4-3.6 1.7-5.3 1.7h-1.4V41c-.1-1.6 0-4.6 1.7-6.3zm.2-14c1.7-1.7 4.7-1.8 6.3-1.7h.4v.4c.1 1 .2 4.4-1.7 6.3-1.4 1.4-3.6 1.7-5.3 1.7h-1.4V27c-.1-1.7 0-4.6 1.7-6.3zM61.4 7c0-2.4 2-4.6 3.3-5.6l.3-.3.3.3c.8.7 3.3 3 3.3 5.6 0 2.4-2 4.6-3.3 5.6l-.3.3-.3-.3c-1.2-1-3.3-3.1-3.3-5.6zm3.1 15.5v.4l-.5.1h-1c-1.6 0-3.9-.3-5.3-1.7-1.7-1.7-1.7-4.7-1.6-6.3v-.4h.4c1-.1 4.4-.2 6.3 1.7 1.7 1.7 1.8 4.6 1.7 6.2zm-.2 14v.4h-1.4c-1.6 0-3.9-.3-5.3-1.7-1.7-1.7-1.8-4.7-1.7-6.3v-.4h.4c1-.1 4.4-.2 6.3 1.7 1.7 1.8 1.8 4.7 1.7 6.3zm-22.9-2c2.1-2.1 5.9-2.1 7.4-1.9h.4v.4c.1 1.5.2 5.3-1.9 7.4-1.6 1.6-4.3 2-6.2 2-.4 0-.8 0-1.3-.1h-.4v-.4c0-1.5-.1-5.3 2-7.4zm-3.4.9V37.2h-1.6c-1.9 0-4.5-.3-6.2-2-2.1-2.1-2.1-5.9-1.9-7.4v-.4h.4c1.5-.1 5.3-.2 7.4 1.9 1.6 1.6 2 4.1 2 5.9v.2zm-23.3-6.5c1.4-1.4 3.7-1.4 5-1.4h.4v.4c.1 1.3 0 3.6-1.4 5-1.1 1.1-3 1.4-4.3 1.4h-1.1v-.4c0-1.3.1-3.6 1.4-5zm.2-11.6c1.4-1.4 3.7-1.4 5-1.4h.4v.4c.1 1.3 0 3.6-1.4 5-1.1 1.1-3 1.4-4.3 1.4h-1.1v-.4c0-1.3 0-3.7 1.4-5zm-2.7.8v.9h-1c-1.3 0-3.2-.2-4.3-1.4-1.4-1.4-1.4-3.7-1.4-5v-.4h.4c1.3-.1 3.6 0 5 1.4 1.2 1.2 1.4 3 1.4 4.3v.2zM12 30.2v.4h-1c-1.4 0-3.2-.2-4.4-1.4-1.4-1.4-1.4-3.7-1.4-5v-.4h.4c1.3-.1 3.6 0 5 1.4s1.5 3.7 1.4 5zm.7-19.5l-.3-.3c-1-.8-2.6-2.6-2.6-4.5s1.6-3.6 2.6-4.5l.3-.3.3.3c1 .8 2.6 2.6 2.6 4.5S14 9.5 13 10.4l-.3.3zM37.8 53v.4h-.4c-.4 0-.8.1-1.3.1-1.9 0-4.5-.3-6.2-2-2.1-2.1-2.1-5.9-1.9-7.4v-.4h.4c1.9-.1 5.4-.1 7.4 1.9 2.1 2.1 2.1 5.8 2 7.4zm10.8-4.3h.4v.4c.1 1.5.2 5.3-1.9 7.4-1.6 1.6-4.2 2-6.1 2-.4 0-.9 0-1.3-.1h-.4V58c-.1-1.5-.2-5.3 1.9-7.4 2.1-2 5.9-2 7.4-1.9zm-10.1-23l-.3-.3c-1.2-1-3.9-3.6-3.9-6.6 0-3 2.7-5.6 3.9-6.6l.3-.3.3.3c1.2 1 3.9 3.6 3.9 6.6 0 3-2.7 5.6-3.9 6.6l-.3.3zm.5 20.6l.7.3c.7.3 1.4.6 2 .9l1.7.7-1 .5c-.8.4-1.4.8-2 1.3-.2.2-.4.4-.6.7l-.8 1.1v-5.5z"/>
  <path d="M79 60.1c0-.2-.3-.4-.5-.4h-.1C66.5 62 48.8 67.1 31.9 78c-.1.1-.2.2-.2.3 0 .1 0 .3.1.4.1.1.2.2.3.2.1 0 .3 0 .4-.1C49.3 68 66.8 63 78.6 60.7c.1 0 .2-.1.3-.2s.1-.2.1-.4z"/>
  <path d="M78.8 68.4c-.1 0-.2-.1-.3-.1h-.1c-9.5 2.3-18.5 5.6-26.9 9.7-.2.1-.4.4-.2.7l.3.3h.4c8.3-4 17.3-7.3 26.7-9.6.1 0 .2-.1.3-.2v-.5c0-.1-.1-.2-.2-.3z"/>
</svg>
