<svg xmlns="http://www.w3.org/2000/svg" viewBox="0 0 122.5 76.2">
  <defs/>
  <path d="M59.8 76.2h-1c-.3 0-.6 0-.9-.1-.4-.1-.8-.3-1.2-.4s-.7-.3-1.1-.4c-2.1-.6-2.7-2.4-3-4 0-.1-.1-.3-.2-.5-.7-1.1-1.4-2.2-2.2-3.3-.1-.2-.3-.4-.4-.7-.5-.7-.9-1.4-1.5-1.9-.3-.3-.9-.4-1.9-.5-.3 0-.7.1-1 1-.1.4-.4.7-.7 1l-.3.3-.3.3-.4-.2c-.3-.2-.6-.4-.8-.5-.7-.4-1.3-.8-1.9-1.4-.4-.4-.6-.9-.9-1.4l-.3-.6c-.1-.2-.2-.5-.4-.7-.2-.5-.5-1-.8-1.3-.8-1-1.6-1.8-2.3-2.5-.4-.4-.8-.6-1.2-.7-.6-.1-1.3-.2-1.9-.3-.2 0-.3 0-.5-.1 0 .2-.1.4-.2.7l-.2.7-.5-.1c-.8-.3-1.8-.4-2.8-.5-2.2-.3-4.5-.5-6.6-2-.7-.5-1.4-.9-2.2-1.2-1.1-.6-2.1-1.1-3.1-1.9-1.4-1.2-3-1.4-4.7-1.5-.3 0-.6-.1-.9-.1-1.1-.1-1.5-.6-1.5-1.7 0-1-.5-1.6-1.2-2.4l-.3-.4c-.2-.3-.5-.5-.9-.7-.5-.3-.9-.7-1.3-1.2-.3-.4-1-.7-1.6-.9s-1.7-.6-1.2-2.2c.1-.3 0-.9-.3-1.5-.2-.6-.5-1.1-.8-1.7-.2-.4-.4-.7-.6-1.1-.1-.2-.3-1 .1-1.3.3-.3.3-.4.3-.4 0-.1-.3-.4-.5-.6-.4-.4-.4-.8-.4-1.3v-.5L1 32.3v-.1c.1-.1 0-.3 0-.4.1-.6-.2-1.2-.5-1.8-.4-1-.9-2-.3-3.3.1-.1 0-.5-.1-.7 0-.4-.1-.7-.1-1v-.2c0-.6-.1-1.4.3-1.9.8-1.1 1.2-1.9 1-2.9-.3-2 .6-3.6 1.4-5.1l.6-1.2c1.4-2.8 2.7-6.2 2.6-10 0-.6 0-1.1-.1-1.7V.5l.8.4c.4.1.7.3 1.1.5.9.4 1.7.8 2.4 1.3 0 0 .1 0 .1.1V0l.6.2c16.7 4.6 34 7 51.4 7.2h.2c.6.2 1.1.4 1.7.6.5.2 1.1.3 1.6.3h.1l.2.1c.3.2.6.2.9.2h.3l.3.3c.1.1.1.2.2.3 1.4 2.2 3.4 2.8 4.7 2.8v.2l.1.8.3-.1.2.4c.3.5.5.7.5.7.1 0 .3 0 .8-.4l1.8-1.2.5-.3.3.2c.8.6 1.8 1 2.7 1.4.8.3 1.7.5 2.8.7h.2l.1.1c1.1 1.2 2.6 1.8 4.3 1.8h.6l.1.1c1.4.8 1.9 2.4 1.3 3.9.4-.2.7-.2.8-.2.2 0 .7.2 1 .9.3.8.5 1.7.6 2.5l.1.7c.1.3-.1.6-.2.9-.4.6-.7 1.3-1.1 1.9v.1c1.4.8 2 .6 3.2-.4.7-.6 1.4-1.1 2.1-1.6.6-.4 1.2-.8 1.7-1.3.3-.2.6-.4.7-.7 0-.1.1-.3-.2-.7-.1-.1-.2-.3-.1-.6s.3-.8.7-1c.4-.2 1.1-.5 1.8-.5 1.4.1 2.2-.2 2.9-1-.1-.3-.3-.5-.4-.8l-.1-.2.1-.3.3-.6c.2-.4.5-.9.8-1.3.7-1 1.5-1.9 3-2.1 1-.1 2-.4 3-.7.4-.1.8-.2 1.1-.3 1.6-.4 2.6-1.8 2.6-3.7 0-1 .2-2 .5-3.1.1-.5.3-.6.4-1.1l.5-.4 1 .1c.6-.4 1.3-.6 1.9-.4.7.3 1.1 1.1 1.3 1.9.1.2.1.3.1.5.1.4.2.7.4 1 .3.4.6.8 1 1.1.3.3.6.6.8.9.3.3.5.7.6 1.1.1.1.2.3.2.4l.2.4-.4.3c-.3.3-.7.5-1 .7-.7.5-1.4 1-2 1.5-.3.2-.5.6-.8.9-.3.4-.6.7-1 1.1-1.2.9-1.2 2.2-1.1 3.6 0 0 0 .1.1.1 0 .1.1.2.1.3 0 .1.2.3.4.4.3.3.7.7.7 1.2 0 .6-.5.9-.9 1.2-.5.3-1 .7-1.5 1.1-.2.1-.3.2-.5.4l.6.8-3.6 2.6.1.3-.3.3c-1.8 1.1-3 3.2-3 5.2V34c-.1.4-.3.8-.3 1.2l-.2.9.1.5c0 1.7.6 3.1 1.6 4.2l.5.5c.1.1.2.2.3.2l.2.1v.2c.2 1.3-.6 1.9-1.3 2.2l.7.9-.4.3c-.1.1-.2.1-.3.2-.2.2-.4.3-.6.5-.5.4-.9.9-1.3 1.4-.2.3-.5.5-.7.8l-.2.2-.9.9c-.2.2-.4.3-.6.5-.3.2-.7.5-.7.6-.3 1.4-1.3 2.3-2.1 3-.2.1-.3.3-.4.4-1.4 1.3-2.8 4.7-1.6 6.8.2.3.4.7.5 1 .5.9.9 1.8 1.7 2.5.3.3.4.7.5 1 0 .2.1.4.1.5l.3.6c.3.7.6 1.4 1 1.9 1.1 1.6 1 3.2.9 4.9-.1 1.5-.7 2.2-2 2.4-.4.1-1-.2-1.2-.5l-.1-.2c-.4-.6-.6-1.1-1.3-1.2-.5-.1-.8-.6-1-1-.1-.2-.2-.4-.3-.5-.2-.3-.5-.6-.7-.8-.5-.5-.9-1-1.3-1.6l-.2-.3c-.5-.8-1.2-1.9-.7-3.3.1-.3.1-.5 0-.7s-.3-.4-.7-.5c-.5-.1-.8-.5-1.1-.9-.2-.2-.3-.4-.5-.5l-.2-.2c-.6-.5-.9-.7-1.5-.1-.5.5-1.1.7-1.7.9l-.6.3-.6-.2c-.1-.2-.2-.4-.3-.5-.1-.1-.2-.4-.3-.4-1-.5-2-.9-3.1-.7-.2 0-.4.1-.6.2-.7.3-1.5.6-2.6-.1-.3-.2-1.1.1-1.6.3-.2.1-.3.1-.5.2 0 .1-.1.1-.1.2l-.1.1-.1.1c-1 .5-1.7 1.4-2.3 2.5l-.1.2-.2.1c-1.8.5-3-.4-4.1-1.1-.1-.1-.2-.1-.2-.2h-.3c-.2 0-.3.1-.5.1-.5.1-1 .3-1.5.1-1.2-.4-2.4-.2-3.7.1l-.5.1c-.9.2-1.2.7-1.8 1.3l-.1.1c-.5.6-1.4 1-2.2 1.3-2.2.8-3.4 2.2-3.5 4.3-.1.6.1 1.2.3 1.9l.3 1.2.2.8zM46.4 63.3c.8 0 1.9.1 2.6.7.7.6 1.2 1.4 1.7 2.1.1.2.3.4.4.6.7 1.1 1.5 2.2 2.2 3.4.2.3.3.6.4.9.4 2.3.8 2.8 2.3 3.2.4.1.8.3 1.2.4s.8.3 1.2.4c.1 0 .2 0 .3.1 0-.2-.1-.3-.1-.5-.2-.8-.6-1.8-.5-2.6.2-2.5 1.9-4 4.4-4.9.6-.2 1.5-.6 1.9-1.1.6-.7 1.2-1.4 2.4-1.7l.5-.1c1.3-.3 2.7-.6 4.2-.1.2.1.6 0 .9-.1h.2l.3-.1h.6c.3.2.5.4.8.6 1 .7 1.5 1.2 2.8.9.5-1 1.2-2 2.1-2.6l.3-.3.3-.2.3-.2c.3-.1.5-.2.9-.3.9-.3 1-.4 1.7 0s1.3.2 1.9 0c.2-.1.7-.3.9-.3 1.5-.4 2.4-.1 3.5.5.3.2.5.5.7.8 0 0 0 .1.1.1s.2-.1.3-.1c.5-.2 1-.4 1.4-.7 1.3-1.3 2.2-.4 2.8.1l.2.2.6.6c.2.3.5.5.7.6.8.2 1.1.7 1.3 1 .2.5.3 1 .1 1.5-.4 1 .1 1.6.6 2.4l.2.4c.3.5.7 1 1.2 1.5.3.3.5.6.7.9.1.2.3.4.4.6s.3.5.4.6c1.1.3 1.5 1 1.9 1.7l.1.2h.2c.8-.1 1.1-.4 1.2-1.4.1-1.6.2-3-.7-4.3-.5-.7-.8-1.4-1.1-2.1l-.3-.6c-.1-.2-.2-.5-.2-.7-.1-.2-.1-.5-.2-.5-.9-.8-1.4-1.8-1.9-2.8-.2-.3-.3-.7-.5-1-1.5-2.6.1-6.5 1.8-8.1.2-.1.3-.3.5-.4.8-.7 1.5-1.4 1.8-2.5.1-.6.6-.9 1.1-1.2.2-.1.4-.3.5-.4l.8-.8.2-.2c.2-.3.5-.5.7-.8.4-.5.9-.9 1.4-1.4.2-.2.4-.4.6-.5l-.3-.8.1-.6c1.1-.4 1.2-.6 1.2-1.1v-.1l-.6-.4-.7-.9c-.9-1.2-1.3-2.7-1.3-4.3v-1.4l.3-1.1c0-.1.1-.3.1-.4 0-2.3 1.2-4.5 3.1-5.9l-.1-.3 3.4-2.4-.5-.7.4-.4.1-.1c.2-.2.5-.3.7-.5.5-.4 1-.8 1.6-1.1.4-.3.5-.4.5-.4 0-.1-.2-.3-.4-.4-.3-.2-.6-.5-.7-.9 0-.1 0-.1-.1-.1-.1-.1-.1-.3-.1-.5-.1-1.5 0-3.2 1.5-4.4l.9-.9c.3-.3.6-.7.9-1 .6-.5 1.3-1 2-1.5.2-.1.4-.3.6-.5v-.1c-.2-.3-.3-.6-.5-.9-.2-.3-.5-.6-.7-.9-.4-.4-.7-.8-1-1.3-.3-.4-.4-.9-.5-1.3 0-.2-.1-.3-.1-.5-.2-.7-.5-1.2-.7-1.2-.2-.1-.7.1-1.3.4l-.2.2-.8-.4c-.3.1-.4.4-.4.7-.2 1-.4 2-.4 2.9-.1 2.3-1.3 4.1-3.4 4.6-.4.1-.7.2-1.1.3-1 .3-2 .6-3.1.7-1.1.2-1.6.8-2.3 1.7-.3.4-.5.8-.7 1.2-.1.1-.1.3-.2.4.2.3.3.6.4.9l.1.3-.2.2c-1.2 1.6-2.8 1.8-4 1.7-.3 0-.8.1-1.3.3 0 0-.1.2-.1.3.4.7.3 1.2.2 1.6-.2.4-.6.7-.9 1-.6.4-1.2.9-1.7 1.3l-2.1 1.5c-1.8 1.4-2.9 1.5-4.8.3l-.4-.3.5-.9c.4-.6.7-1.2 1.1-1.9 0-.1.1-.2.1-.2l-.1-.6c-.2-.8-.3-1.6-.6-2.4-.1-.2-.2-.3-.2-.3s-.2 0-.4.3c-.3.3-.6.7-.8 1l-.3.3-.4-.2c-.1-.1-.2-.1-.4-.2l-.4-.2.4-.8c.2-.4.3-.7.5-1.1.6-1 .3-2.2-.6-2.8H87c-2 0-3.7-.7-5-2-1.1-.2-2-.4-2.8-.7-.9-.3-1.8-.8-2.7-1.3-.6.4-1.2.8-1.7 1.2-.6.4-1.1.6-1.6.5-.4-.1-.7-.4-1-.8l-2 .9-.7-1.1 1.4-1.1c-1.7-.4-3.2-1.5-4.3-3.1l-.1-.1c-.4 0-.8-.1-1.2-.3-.7 0-1.3-.1-1.9-.4l-1.5-.6c-17.2-.1-34.3-2.5-50.9-7v4.4l-.9-1.3c.1-.1 0-.2-.1-.4s-.2-.4-.4-.5c-.7-.4-1.5-.8-2.3-1.2-.2-.1-.3-.1-.4-.2.1.6.1 1.1.1 1.7.1 3.9-1.3 7.5-2.7 10.4l-.6 1.2c-.8 1.4-1.5 2.8-1.3 4.5.2 1.5-.5 2.7-1.2 3.6-.2.2-.2.9-.2 1.3v.2c0 .2.1.4.1.7.1.5.3 1 .1 1.4-.4.9-.1 1.6.3 2.5.3.6.5 1.3.5 2 .1.1.1.2.1.2l.1.2c.1.4.2.9.3 1.3v1.2c.4.4.9.8.9 1.4 0 .3-.2.7-.5 1 0 .1 0 .2.1.3.2.4.4.7.5 1.1.3.6.6 1.1.8 1.8.4.9.5 1.7.3 2.2-.2.6-.2.7.6.9.7.2 1.6.6 2.1 1.3.3.4.6.7 1 1 .4.3.7.5 1 .9l.3.4c.8.8 1.5 1.7 1.5 3.1 0 .5 0 .6.6.6.3 0 .6.1.9.1 1.8.2 3.6.3 5.2 1.8.8.7 1.8 1.2 2.8 1.8.8.4 1.5.8 2.3 1.3 1.9 1.3 4 1.5 6.2 1.8.8.1 1.7.2 2.5.3.1-.3.1-.6.2-.9l.1-.4.4.1c.3 0 .6.1.9.1.7.1 1.4.1 2.1.3.8.2 1.4.7 1.7 1 .7.7 1.6 1.6 2.4 2.6.4.5.6 1 .9 1.5.1.2.2.5.3.7l.3.6c.2.4.4.8.6 1.1.5.5 1.1.9 1.8 1.3.2.1.3.2.5.3l.1-.1c.2-.2.4-.4.5-.6.6-1.6 1.4-1.9 2-1.9zm52.2-41.6z"/>
</svg>
